<svg width="38" height="38" viewBox="0 0 38 38" fill="none" xmlns="http://www.w3.org/2000/svg">
<path d="M18.1163 36.2327C8.13025 36.2327 0 28.1024 0 18.1163C0 8.13025 8.13025 0 18.1163 0C28.1024 0 36.2327 8.13025 36.2327 18.1163C36.2327 28.1024 28.1024 36.2327 18.1163 36.2327ZM18.1163 2.65117C9.57956 2.65117 2.65117 9.59723 2.65117 18.1163C2.65117 26.6354 9.57956 33.5815 18.1163 33.5815C26.6531 33.5815 33.5815 26.6354 33.5815 18.1163C33.5815 9.59723 26.6531 2.65117 18.1163 2.65117Z" fill="#3D3D3D"/>
<path d="M36.6752 38C36.3393 38 36.0035 37.8763 35.7384 37.6112L32.2035 34.0763C31.691 33.5637 31.691 32.7153 32.2035 32.2028C32.7161 31.6902 33.5644 31.6902 34.077 32.2028L37.6119 35.7377C38.1245 36.2502 38.1245 37.0986 37.6119 37.6112C37.3468 37.8763 37.011 38 36.6752 38Z" fill="#3D3D3D"/>
</svg>
